<?xml version="1.0" encoding="UTF-8"?>
<svg width="684px" height="64px" viewBox="0 0 684 64" version="1.1" xmlns="http://www.w3.org/2000/svg" xmlns:xlink="http://www.w3.org/1999/xlink">
    <title>Developer Profile BETA</title>
    <g stroke="none" stroke-width="1" fill="none" fill-rule="evenodd">
        <g id="lockup">
            <path d="M143.946269,7.68 L156.452239,7.68 C160.280597,7.68 164.108955,8.448 167.426866,10.24 C170.489552,12.032 173.041791,14.336 174.573134,17.664 C176.359701,20.992 177.125373,24.576 177.125373,28.416 C177.125373,32.256 176.359701,35.84 174.573134,39.168 C172.786567,42.24 170.489552,44.8 167.426866,46.336 C164.108955,48.128 160.280597,48.896 156.452239,48.896 L143.946269,48.896 L143.946269,7.68 Z M156.197015,44.288 C160.535821,44.544 164.619403,43.008 167.937313,40.192 C171,37.12 172.531343,32.768 172.276119,28.416 C172.531343,24.064 171,19.712 167.937313,16.64 C164.874627,13.824 160.535821,12.288 156.197015,12.544 L148.540299,12.544 L148.540299,44.544 L156.197015,44.544 L156.197015,44.288 Z" id="Shape" fill="#5F6368" fill-rule="nonzero"></path>
            <path d="M188.1,47.872 C185.802985,46.592 184.271642,44.544 182.995522,42.24 C181.719403,39.68 181.208955,37.12 181.208955,34.304 C181.208955,31.488 181.719403,28.928 182.995522,26.368 C184.016418,24.064 185.802985,22.016 188.1,20.736 C190.397015,19.2 192.949254,18.432 195.501493,18.688 C198.053731,18.688 200.60597,19.2 202.902985,20.736 C204.944776,22.016 206.731343,23.808 207.752239,26.112 C208.773134,28.416 209.538806,31.232 209.538806,33.792 C209.538806,34.304 209.538806,34.816 209.538806,35.328 L185.802985,35.328 C185.802985,37.376 186.313433,39.168 187.334328,40.96 C188.1,42.496 189.376119,43.52 190.907463,44.544 C192.438806,45.312 193.970149,45.824 195.501493,45.824 C199.074627,45.824 202.647761,43.776 204.179104,40.448 L208.262687,42.496 C206.986567,44.8 205.2,46.848 203.158209,48.128 C198.819403,50.688 192.949254,50.688 188.1,47.872 L188.1,47.872 Z M204.179104,31.232 C204.179104,29.952 203.668657,28.672 203.158209,27.648 C202.392537,26.368 201.626866,25.344 200.350746,24.576 C198.819403,23.552 197.032836,23.296 195.246269,23.296 C192.949254,23.296 190.907463,24.064 189.376119,25.6 C187.844776,27.136 186.568657,29.184 186.313433,31.488 L204.179104,31.488 L204.179104,31.232 Z" id="Shape" fill="#5F6368" fill-rule="nonzero"></path>
            <polygon id="Path" fill="#5F6368" fill-rule="nonzero" points="209.538806 19.712 214.643284 19.712 224.086567 43.264 224.086567 43.264 233.274627 19.712 238.379104 19.712 226.383582 49.152 221.534328 49.152"></polygon>
            <path d="M245.780597,47.872 C243.483582,46.592 241.952239,44.544 240.676119,42.24 C239.4,39.68 238.634328,37.12 238.889552,34.304 C238.889552,31.488 239.4,28.928 240.676119,26.368 C241.697015,24.064 243.483582,22.016 245.780597,20.736 C248.077612,19.2 250.629851,18.432 253.18209,18.688 C255.734328,18.688 258.286567,19.2 260.583582,20.736 C262.625373,22.016 264.41194,23.808 265.432836,26.112 C266.708955,28.416 267.219403,31.232 267.219403,33.792 C267.219403,34.304 267.219403,34.816 266.964179,35.328 L243.483582,35.328 C243.483582,37.376 243.99403,39.168 245.014925,40.96 C245.780597,42.496 247.056716,43.52 248.58806,44.544 C250.119403,45.312 251.650746,45.824 253.18209,45.824 C256.755224,45.824 260.328358,43.776 261.859701,40.448 L265.943284,42.496 C264.667164,44.8 262.880597,46.848 260.838806,48.128 C256.5,50.432 250.629851,50.432 245.780597,47.872 L245.780597,47.872 Z M261.859701,31.232 C261.859701,29.952 261.349254,28.672 260.838806,27.648 C260.073134,26.368 259.052239,25.344 258.031343,24.576 C256.244776,23.552 254.713433,23.04 252.926866,23.04 C250.629851,23.04 248.58806,23.808 247.056716,25.344 C245.525373,26.88 244.249254,28.928 243.99403,31.232 L261.859701,31.232 Z" id="Shape" fill="#5F6368" fill-rule="nonzero"></path>
            <polygon id="Path" fill="#5F6368" fill-rule="nonzero" points="271.813433 7.68 276.662687 7.68 276.662687 49.152 271.813433 49.152"></polygon>
            <path d="M288.658209,47.872 C286.361194,46.592 284.574627,44.544 283.298507,42.24 C282.022388,39.68 281.256716,37.12 281.256716,34.304 C281.256716,31.488 281.767164,28.928 283.298507,26.368 C284.574627,24.064 286.361194,22.016 288.658209,20.736 C293.507463,17.92 299.377612,17.92 304.226866,20.736 C306.523881,22.016 308.310448,24.064 309.586567,26.368 C310.862687,28.928 311.628358,31.488 311.628358,34.304 C311.628358,37.12 311.11791,39.68 309.586567,42.24 C308.310448,44.544 306.523881,46.592 304.226866,47.872 C299.377612,50.688 293.507463,50.688 288.658209,47.872 Z M301.419403,44.288 C302.950746,43.264 304.226866,41.984 305.247761,40.448 C306.268657,38.656 306.779104,36.608 306.779104,34.56 C306.779104,32.512 306.268657,30.464 305.247761,28.672 C304.48209,27.136 303.20597,25.6 301.419403,24.832 C299.88806,23.808 298.101493,23.552 296.314925,23.552 C294.528358,23.552 292.741791,24.064 291.210448,24.832 C289.679104,25.856 288.402985,27.136 287.38209,28.672 C286.361194,30.464 285.850746,32.512 285.850746,34.56 C285.850746,36.608 286.361194,38.656 287.38209,40.448 C288.147761,41.984 289.679104,43.52 291.210448,44.288 C292.741791,45.312 294.528358,45.568 296.314925,45.568 C298.101493,45.568 299.88806,45.056 301.419403,44.288 L301.419403,44.288 Z" id="Shape" fill="#5F6368" fill-rule="nonzero"></path>
            <path d="M316.222388,19.712 L320.816418,19.712 L320.816418,24.064 L321.071642,24.064 C322.092537,22.528 323.368657,21.248 325.155224,20.224 C326.941791,19.2 328.983582,18.688 331.280597,18.688 C333.832836,18.688 336.385075,19.456 338.426866,20.736 C340.723881,22.016 342.255224,24.064 343.531343,26.368 C344.807463,28.928 345.31791,31.488 345.31791,34.304 C345.31791,37.12 344.807463,39.936 343.531343,42.496 C342.255224,44.8 340.723881,46.592 338.426866,48.128 C336.385075,49.408 333.832836,50.176 331.280597,50.176 C329.238806,50.176 327.197015,49.664 325.155224,48.64 C323.623881,47.872 322.092537,46.592 321.071642,44.8 L320.816418,44.8 L321.071642,48.896 L321.071642,61.696 L316.222388,61.696 L316.222388,19.712 Z M335.364179,44.032 C336.895522,43.008 338.171642,41.728 338.937313,40.192 C339.958209,38.4 340.213433,36.352 340.213433,34.304 C340.213433,32.256 339.702985,30.208 338.937313,28.416 C338.171642,26.88 336.895522,25.344 335.364179,24.576 C332.556716,22.784 328.728358,22.784 325.665672,24.576 C324.134328,25.6 322.858209,26.88 322.092537,28.416 C321.071642,30.208 320.816418,32.256 320.816418,34.304 C320.816418,36.352 321.326866,38.4 322.092537,40.192 C322.858209,41.728 324.134328,43.264 325.665672,44.032 C328.728358,46.08 332.556716,46.08 335.364179,44.032 Z" id="Shape" fill="#5F6368" fill-rule="nonzero"></path>
            <path d="M356.292537,47.872 C353.995522,46.592 352.464179,44.544 351.18806,42.24 C349.91194,39.68 349.146269,37.12 349.146269,34.304 C349.146269,31.488 349.656716,28.928 350.932836,26.368 C351.953731,24.064 353.740299,22.016 356.037313,20.736 C358.334328,19.2 360.886567,18.432 363.438806,18.688 C365.991045,18.688 368.543284,19.2 370.840299,20.736 C372.88209,22.016 374.668657,23.808 375.689552,26.112 C376.965672,28.416 377.476119,31.232 377.476119,33.792 C377.476119,34.304 377.476119,34.816 377.476119,35.328 L354.250746,35.328 C354.250746,37.376 354.761194,39.168 355.78209,40.96 C356.547761,42.496 357.823881,43.776 359.355224,44.544 C360.886567,45.312 362.41791,45.568 363.949254,45.824 C367.522388,45.824 371.095522,43.776 372.626866,40.448 L376.710448,42.496 C375.434328,44.8 373.647761,46.848 371.60597,48.128 C367.01194,50.688 361.141791,50.688 356.292537,47.872 L356.292537,47.872 Z M372.371642,31.232 C372.371642,29.952 371.861194,28.672 371.350746,27.648 C370.585075,26.368 369.819403,25.344 368.543284,24.576 C367.01194,23.552 365.225373,23.296 363.69403,23.296 C361.397015,23.296 359.355224,24.064 357.823881,25.6 C356.292537,27.136 355.016418,29.184 354.761194,31.488 L372.371642,31.488 L372.371642,31.232 Z" id="Shape" fill="#5F6368" fill-rule="nonzero"></path>
            <path d="M382.070149,19.712 L386.664179,19.712 L386.664179,24.32 L386.919403,24.32 C387.429851,22.528 388.70597,21.248 390.237313,20.224 C391.768657,19.2 393.555224,18.688 395.341791,18.688 C396.61791,18.688 397.638806,18.944 398.914925,19.2 L398.914925,24.576 C397.638806,24.064 396.107463,23.552 394.831343,23.552 C393.555224,23.552 392.023881,24.064 391.002985,24.832 C389.726866,25.6 388.70597,26.88 388.195522,28.16 C387.429851,29.44 387.174627,30.976 387.174627,32.512 L387.174627,48.896 L382.325373,48.896 L382.070149,19.712 Z" id="Path" fill="#5F6368" fill-rule="nonzero"></path>
            <path d="M417.801493,7.68 L431.583582,7.68 C433.880597,7.68 435.922388,8.192 437.964179,9.216 C440.00597,10.24 441.537313,11.776 442.558209,13.568 C443.834328,15.616 444.344776,17.664 444.344776,19.968 C444.344776,22.272 443.834328,24.32 442.558209,26.368 C441.28209,28.16 439.750746,29.696 437.964179,30.72 C435.922388,31.744 433.880597,32.256 431.583582,32.256 L422.650746,32.256 L422.650746,49.152 L417.801493,49.152 L417.801493,7.68 Z M431.838806,27.392 C433.370149,27.392 434.646269,27.136 435.922388,26.368 C436.943284,25.6 437.964179,24.576 438.729851,23.552 C440.00597,21.248 440.00597,18.432 438.729851,16.384 C437.964179,15.104 437.198507,14.336 435.922388,13.568 C434.646269,12.8 433.370149,12.544 431.838806,12.544 L422.650746,12.544 L422.650746,27.648 L431.838806,27.392 Z" id="Shape" fill="#5F6368" fill-rule="nonzero"></path>
            <path d="M448.683582,19.712 L453.277612,19.712 L453.277612,24.32 L453.532836,24.32 C454.298507,22.528 455.319403,21.248 456.850746,20.224 C458.38209,19.2 460.168657,18.688 461.955224,18.688 C463.231343,18.688 464.252239,18.944 465.528358,19.2 L465.528358,24.576 C464.252239,24.064 462.976119,23.552 461.444776,23.552 C460.168657,23.552 458.637313,24.064 457.616418,24.832 C456.340299,25.6 455.319403,26.88 454.808955,28.16 C454.043284,29.44 453.78806,30.976 453.78806,32.512 L453.78806,48.896 L448.938806,48.896 L448.938806,19.712 L448.683582,19.712 Z" id="Path" fill="#5F6368" fill-rule="nonzero"></path>
            <path d="M474.20597,47.872 C471.908955,46.592 470.122388,44.544 468.846269,42.24 C467.570149,39.68 466.804478,37.12 466.804478,34.304 C466.804478,31.488 467.314925,28.928 468.846269,26.368 C470.122388,24.064 471.908955,22.016 474.20597,20.736 C479.055224,17.92 484.925373,17.92 489.774627,20.736 C492.071642,22.016 493.858209,24.064 495.134328,26.368 C496.410448,28.672 497.176119,31.488 497.176119,34.304 C497.176119,37.12 496.665672,39.68 495.134328,42.24 C493.858209,44.544 492.071642,46.592 489.774627,47.872 C484.925373,50.688 479.055224,50.688 474.20597,47.872 Z M486.967164,44.288 C488.498507,43.264 489.774627,41.984 490.795522,40.448 C491.816418,38.656 492.326866,36.608 492.326866,34.56 C492.326866,32.512 491.816418,30.464 490.795522,28.672 C490.029851,27.136 488.498507,25.6 486.967164,24.832 C485.435821,23.808 483.649254,23.552 481.862687,23.552 C478.289552,23.552 474.716418,25.6 472.929851,28.928 C471.908955,30.72 471.398507,32.768 471.398507,34.816 C471.398507,36.864 471.908955,38.912 472.929851,40.704 C474.716418,44.032 478.034328,46.08 481.862687,46.08 C483.649254,45.568 485.435821,45.056 486.967164,44.288 Z" id="Shape" fill="#5F6368" fill-rule="nonzero"></path>
            <path d="M503.81194,24.064 L498.452239,24.064 L498.452239,19.712 L503.81194,19.712 L503.81194,16.384 C503.81194,14.592 504.322388,13.056 505.08806,11.52 C505.853731,10.24 507.129851,8.96 508.40597,8.448 C509.937313,7.68 511.468657,7.168 513,7.168 C514.531343,7.168 515.807463,7.424 517.338806,7.936 L517.338806,12.8 C516.828358,12.544 516.062687,12.288 515.297015,12.032 C514.531343,11.776 513.765672,11.776 513,11.776 C511.723881,11.776 510.702985,12.288 509.68209,13.056 C508.661194,14.08 508.150746,15.36 508.40597,16.64 L508.40597,19.2 L526.78209,19.2 L526.78209,48.64 L521.932836,48.64 L521.932836,24.064 L508.661194,24.064 L508.661194,49.152 L503.81194,49.152 L503.81194,24.064 Z M521.932836,13.312 C521.167164,12.544 520.91194,11.776 520.91194,10.752 C520.91194,9.728 521.167164,8.96 521.932836,8.192 C522.698507,7.424 523.464179,7.168 524.485075,7.168 C525.50597,7.168 526.271642,7.424 527.037313,8.192 C527.802985,8.96 528.058209,9.728 528.058209,10.752 C528.058209,11.776 527.802985,12.544 527.037313,13.312 C526.271642,14.08 525.50597,14.336 524.485075,14.336 C523.464179,14.336 522.443284,13.824 521.932836,13.312 L521.932836,13.312 Z" id="Shape" fill="#5F6368" fill-rule="nonzero"></path>
            <polygon id="Path" fill="#5F6368" fill-rule="nonzero" points="532.397015 7.68 537.246269 7.68 537.246269 49.152 532.397015 49.152"></polygon>
            <path d="M549.241791,47.872 C546.944776,46.592 545.413433,44.544 544.137313,42.24 C542.861194,39.68 542.095522,37.12 542.350746,34.304 C542.350746,31.488 542.861194,28.928 544.137313,26.368 C545.158209,24.064 546.944776,22.016 549.241791,20.736 C551.538806,19.2 554.091045,18.432 556.643284,18.688 C559.195522,18.688 561.747761,19.2 564.044776,20.736 C566.086567,22.016 567.61791,23.808 568.638806,26.112 C569.914925,28.416 570.425373,31.232 570.425373,33.792 C570.425373,34.304 570.425373,34.816 570.425373,35.328 L546.944776,35.328 C546.944776,37.376 547.455224,39.168 548.476119,40.96 C549.241791,42.496 550.51791,43.52 552.049254,44.288 C553.580597,45.056 555.11194,45.568 556.643284,45.568 C560.216418,45.568 563.789552,43.52 565.320896,40.192 L569.404478,42.24 C568.128358,44.544 566.341791,46.592 564.3,47.872 C559.961194,50.432 554.091045,50.432 549.241791,47.872 L549.241791,47.872 Z M565.065672,31.232 C565.065672,29.952 564.555224,28.672 564.044776,27.648 C563.279104,26.368 562.258209,25.344 561.237313,24.576 C559.70597,23.552 557.919403,23.04 556.38806,23.04 C554.091045,23.04 552.049254,23.808 550.51791,25.344 C548.986567,26.88 547.710448,28.928 547.455224,31.232 L565.065672,31.232 Z" id="Shape" fill="#5F6368" fill-rule="nonzero"></path>
            <g id="Group" transform="translate(63.805970, 0.000000)" fill-rule="nonzero">
                <path d="M10.719403,56.576 C12.2507463,56.576 14.0373134,56.064 15.3134328,55.296 L47.9820896,36.352 L25.2671642,28.16 L6.12537313,39.168 C1.78656716,41.728 0.255223881,47.36 2.80746269,51.968 C4.33880597,54.784 7.40149254,56.576 10.719403,56.576 Z" id="Path" fill="#FBBC04"></path>
                <path d="M43.3880597,37.632 C48.4925373,37.632 52.8313433,33.536 52.8313433,28.416 C52.8313433,25.088 51.0447761,22.016 48.2373134,20.224 L15.5686567,1.28 C11.2298507,-1.28 5.35970149,0.256 2.80746269,4.608 C0.255223881,8.96 1.78656716,14.848 6.12537313,17.408 L38.7940299,36.352 C40.3253731,37.376 41.8567164,37.632 43.3880597,37.632 Z" id="Path" fill="#0F9D58"></path>
            </g>
            <g id="Group" fill-rule="nonzero">
                <path d="M42.3671642,0 C40.8358209,0 39.0492537,0.512 37.7731343,1.28 L4.84925373,20.224 L27.5641791,28.672 L46.7059701,17.664 C51.0447761,15.104 52.5761194,9.472 50.0238806,4.864 C48.7477612,1.792 45.6850746,0 42.3671642,0 Z" id="Path" fill="#EA4335"></path>
                <path d="M9.69850746,18.944 C4.59402985,18.944 0.255223881,23.04 0.255223881,28.16 C0.255223881,31.488 2.04179104,34.56 4.84925373,36.352 L37.5179104,55.296 C41.8567164,57.856 47.7268657,56.32 50.2791045,51.968 C52.8313433,47.616 51.3,41.728 46.961194,39.168 L14.2925373,20.224 C12.761194,19.456 11.2298507,18.944 9.69850746,18.944 Z" id="Path" fill="#4285F4"></path>
            </g>
        </g>
    </g>
</svg>
